<svg width="69" height="24" viewBox="0 0 69 24" fill="none" xmlns="http://www.w3.org/2000/svg">
<path d="M15.3804 7.98999H10.7029V16.3957H15.3804V7.98999Z" fill="#FF5F00"/>
<path d="M10.9992 12.1924C10.9984 11.3828 11.1819 10.5837 11.5356 9.85558C11.8894 9.12742 12.4041 8.48929 13.0409 7.98949C12.2523 7.36962 11.3052 6.98413 10.3079 6.87709C9.31054 6.77004 8.3032 6.94576 7.40101 7.38415C6.49881 7.82254 5.73815 8.50593 5.20598 9.35619C4.67381 10.2064 4.3916 11.1893 4.3916 12.1924C4.3916 13.1954 4.67381 14.1783 5.20598 15.0285C5.73815 15.8788 6.49881 16.5622 7.40101 17.0006C8.3032 17.4389 9.31054 17.6147 10.3079 17.5076C11.3052 17.4006 12.2523 17.0151 13.0409 16.3952C12.4041 15.8954 11.8894 15.2573 11.5356 14.5291C11.1819 13.801 10.9984 13.0019 10.9992 12.1924Z" fill="#EB001B"/>
<path d="M21.6912 12.1925C21.6912 13.1955 21.409 14.1784 20.8769 15.0286C20.3448 15.8789 19.5841 16.5623 18.682 17.0007C17.7798 17.4391 16.7725 17.6148 15.7751 17.5077C14.7778 17.4007 13.8307 17.0152 13.0421 16.3953C13.6784 15.895 14.1927 15.2568 14.5464 14.5288C14.9001 13.8007 15.0839 13.0019 15.0839 12.1925C15.0839 11.3831 14.9001 10.5842 14.5464 9.85619C14.1927 9.12815 13.6784 8.48992 13.0421 7.98961C13.8307 7.36974 14.7778 6.98425 15.7751 6.87721C16.7725 6.77017 17.7798 6.94588 18.682 7.38428C19.5841 7.82268 20.3448 8.50606 20.8769 9.35633C21.409 10.2066 21.6912 11.1894 21.6912 12.1925Z" fill="#F79E1B"/>
<path d="M31.0343 14.0993V11.8537C31.0343 10.9948 30.5111 10.4323 29.6129 10.4323C29.1637 10.4323 28.6754 10.5805 28.3397 11.0689C28.078 10.659 27.7031 10.4323 27.1406 10.4323C26.7656 10.4323 26.3906 10.5457 26.0941 10.9555V10.5064H25.3093V14.0993H26.0941V12.1154C26.0941 11.4788 26.4299 11.1779 26.9531 11.1779C27.4763 11.1779 27.7379 11.5136 27.7379 12.1154V14.0993H28.5228V12.1154C28.5228 11.4788 28.8978 11.1779 29.3818 11.1779C29.905 11.1779 30.1666 11.5136 30.1666 12.1154V14.0993H31.0343ZM42.6762 10.5064H41.403V9.4207H40.6182V10.5064H39.9075V11.2171H40.6182V12.8653C40.6182 13.6894 40.9539 14.1734 41.8521 14.1734C42.1879 14.1734 42.5629 14.06 42.8245 13.9118L42.5977 13.2359C42.371 13.3842 42.1094 13.4234 41.9219 13.4234C41.5469 13.4234 41.3987 13.1967 41.3987 12.8261V11.2171H42.6719V10.5064H42.6762ZM49.3387 10.4279C48.8896 10.4279 48.5888 10.6547 48.4013 10.9512V10.502H47.6164V14.0949H48.4013V12.0717C48.4013 11.4744 48.6629 11.1343 49.1512 11.1343C49.2995 11.1343 49.487 11.1735 49.6396 11.2084L49.8663 10.4584C49.7094 10.4279 49.487 10.4279 49.3387 10.4279ZM39.2709 10.8029C38.8959 10.5413 38.3726 10.4279 37.8102 10.4279C36.912 10.4279 36.3146 10.877 36.3146 11.5878C36.3146 12.1851 36.7637 12.5252 37.5486 12.6342L37.9235 12.6735C38.3334 12.7476 38.5601 12.861 38.5601 13.0484C38.5601 13.3101 38.2593 13.4976 37.736 13.4976C37.2128 13.4976 36.7986 13.3101 36.537 13.1226L36.162 13.7199C36.5718 14.0208 37.1343 14.169 37.6968 14.169C38.7433 14.169 39.345 13.6807 39.345 13.0092C39.345 12.3726 38.8566 12.0369 38.111 11.9235L37.736 11.8843C37.4003 11.845 37.1387 11.7709 37.1387 11.5485C37.1387 11.2869 37.4003 11.1387 37.8145 11.1387C38.2636 11.1387 38.7127 11.3261 38.9395 11.4395L39.2709 10.8029ZM60.1522 10.4279C59.7031 10.4279 59.4022 10.6547 59.2147 10.9512V10.502H58.4299V14.0949H59.2147V12.0717C59.2147 11.4744 59.4764 11.1343 59.9647 11.1343C60.113 11.1343 60.3004 11.1735 60.4531 11.2084L60.6798 10.4672C60.5272 10.4279 60.3048 10.4279 60.1522 10.4279ZM50.1236 12.3028C50.1236 13.3885 50.8735 14.1734 52.0334 14.1734C52.5566 14.1734 52.9316 14.06 53.3066 13.7635L52.9316 13.1269C52.6307 13.3537 52.3342 13.4627 51.9941 13.4627C51.3575 13.4627 50.9084 13.0136 50.9084 12.3028C50.9084 11.627 51.3575 11.1779 51.9941 11.143C52.3299 11.143 52.6307 11.2564 52.9316 11.4788L53.3066 10.8422C52.9316 10.5413 52.5566 10.4323 52.0334 10.4323C50.8735 10.4279 50.1236 11.2171 50.1236 12.3028ZM57.3834 12.3028V10.5064H56.5986V10.9555C56.337 10.6198 55.962 10.4323 55.4736 10.4323C54.462 10.4323 53.6772 11.2171 53.6772 12.3028C53.6772 13.3885 54.462 14.1734 55.4736 14.1734C55.9969 14.1734 56.3718 13.9859 56.5986 13.6502V14.0993H57.3834V12.3028ZM54.5013 12.3028C54.5013 11.6662 54.9112 11.143 55.587 11.143C56.2236 11.143 56.6727 11.6314 56.6727 12.3028C56.6727 12.9394 56.2236 13.4627 55.587 13.4627C54.9155 13.4234 54.5013 12.9351 54.5013 12.3028ZM45.1093 10.4279C44.0628 10.4279 43.3128 11.1779 43.3128 12.2985C43.3128 13.4234 44.0628 14.169 45.1485 14.169C45.6717 14.169 46.195 14.0208 46.6092 13.6807L46.2342 13.1182C45.9334 13.3449 45.5584 13.4932 45.1877 13.4932C44.6994 13.4932 44.2154 13.2665 44.102 12.6342H46.7574C46.7574 12.5209 46.7574 12.4467 46.7574 12.3334C46.7923 11.1779 46.1165 10.4279 45.1093 10.4279ZM45.1093 11.1038C45.5976 11.1038 45.9334 11.4046 46.0075 11.9627H44.1369C44.211 11.4788 44.5468 11.1038 45.1093 11.1038ZM64.6084 12.3028V9.08496H63.8236V10.9555C63.5619 10.6198 63.187 10.4323 62.6986 10.4323C61.687 10.4323 60.9022 11.2171 60.9022 12.3028C60.9022 13.3885 61.687 14.1734 62.6986 14.1734C63.2218 14.1734 63.5968 13.9859 63.8236 13.6502V14.0993H64.6084V12.3028ZM61.7263 12.3028C61.7263 11.6662 62.1361 11.143 62.812 11.143C63.4486 11.143 63.8977 11.6314 63.8977 12.3028C63.8977 12.9394 63.4486 13.4627 62.812 13.4627C62.1361 13.4234 61.7263 12.9351 61.7263 12.3028ZM35.4513 12.3028V10.5064H34.6664V10.9555C34.4048 10.6198 34.0298 10.4323 33.5415 10.4323C32.5299 10.4323 31.745 11.2171 31.745 12.3028C31.745 13.3885 32.5299 14.1734 33.5415 14.1734C34.0647 14.1734 34.4397 13.9859 34.6664 13.6502V14.0993H35.4513V12.3028ZM32.5342 12.3028C32.5342 11.6662 32.9441 11.143 33.6199 11.143C34.2565 11.143 34.7057 11.6314 34.7057 12.3028C34.7057 12.9394 34.2565 13.4627 33.6199 13.4627C32.9441 13.4234 32.5342 12.9351 32.5342 12.3028Z" fill="white"/>
</svg>
